<svg width="36" height="26" viewBox="0 0 36 26" fill="none" xmlns="http://www.w3.org/2000/svg">
<g id="Frame" clip-path="url(#clip0_203_190)">
<path id="Vector" d="M2.979 20.9904C3.31739 21.4618 3.76546 21.8438 4.28451 22.1033C4.80356 22.3628 5.37798 22.4921 5.95817 22.48C6.53836 22.4921 7.11278 22.3628 7.63183 22.1033C8.15088 21.8438 8.59895 21.4618 8.93734 20.9904C9.27573 20.5189 9.7238 20.1369 10.2428 19.8774C10.7619 19.6179 11.3363 19.4886 11.9165 19.5008C12.4967 19.4886 13.0711 19.6179 13.5902 19.8774C14.1092 20.1369 14.5573 20.5189 14.8957 20.9904C15.2341 21.4618 15.6821 21.8438 16.2012 22.1033C16.7202 22.3628 17.2947 22.4921 17.8748 22.48C18.455 22.4921 19.0294 22.3628 19.5485 22.1033C20.0675 21.8438 20.5156 21.4618 20.854 20.9904C21.1924 20.5189 21.6405 20.1369 22.1595 19.8774C22.6786 19.6179 23.253 19.4886 23.8332 19.5008C24.4134 19.4886 24.9878 19.6179 25.5068 19.8774C26.0259 20.1369 26.4739 20.5189 26.8123 20.9904C27.1507 21.4618 27.5988 21.8438 28.1178 22.1033C28.6369 22.3628 29.2113 22.4921 29.7915 22.48C30.3717 22.4921 30.9461 22.3628 31.4652 22.1033C31.9842 21.8438 32.4323 21.4618 32.7707 20.9904" stroke="#18302B" stroke-width="3" stroke-linecap="round" stroke-linejoin="round"/>
</g>
<defs>
<clipPath id="clip0_203_190">
<rect width="35.75" height="35.75" fill="white"/>
</clipPath>
</defs>
</svg>
